<?xml version="1.0" standalone="yes"?>

<svg version="1.1" viewBox="0.0 0.0 429.65616797900265 417.1706036745407" fill="none" stroke="none" stroke-linecap="square" stroke-miterlimit="10" xmlns="http://www.w3.org/2000/svg" xmlns:xlink="http://www.w3.org/1999/xlink"><clipPath id="p.0"><path d="m0 0l429.65616 0l0 417.1706l-429.65616 0l0 -417.1706z" clip-rule="nonzero"></path></clipPath><g clip-path="url(#p.0)"><path fill="#000000" fill-opacity="0.0" d="m0 0l429.65616 0l0 417.1706l-429.65616 0z" fill-rule="nonzero"></path><path fill="#000000" fill-opacity="0.0" d="m-204.34506 211.00133l252.15747 -443.0551l518.3307 294.96063l-252.1575 443.0551z" fill-rule="nonzero"></path><path fill="#cc0000" d="m356.2574 346.1045q18.09201 -16.689209 30.218292 -37.995758q13.710663 -24.090393 18.159393 -49.154663q4.4487305 -25.064285 1.2332764 -49.582016q-3.215454 -24.51773 -12.972717 -47.238968q-6.7746277 -16.115997 -16.723633 -30.982178q9.545227 13.39595 17.569916 28.389572q11.283691 21.144867 15.355011 45.232788q4.07135 24.087906 0.0524292 50.008026q-4.018921 25.92012 -19.313965 52.794327l-3.4237976 6.0158386q-21.887573 38.457703 -55.10904 56.964478q-33.213776 18.493164 -70.39404 21.875061q-37.186142 3.3605652 -75.22453 -6.312317q-38.03067 -9.686462 -69.998314 -27.87793q-13.430756 -7.6428833 -27.689232 -17.590546q-14.26432 -9.968933 -26.920086 -23.301239q-12.655766 -13.332275 -22.364048 -30.200836q-9.714136 -16.889862 -13.327747 -38.559967q-2.8680573 -17.57837 -1.5388355 -35.518845q1.32337 -17.961792 8.306345 -32.37932q0.1351242 1.9106293 1.0585747 2.4361267q1.8468971 1.0509949 5.1207237 0.16339111q3.2679787 -0.908905 5.5901794 0.41256714l0.92345047 0.52549744q1.8604813 1.0587158 1.5937157 3.6754913q-0.25903702 2.6031952 -1.2648926 8.161209q-1.0194397 5.550308 -1.9936371 14.811798q-0.9877739 9.253754 -0.29296494 23.132462q4.3605766 -1.1860352 5.7457504 -0.39779663q0.37734604 -11.43486 2.7502975 -19.90036q2.3593712 -8.473251 6.053673 -14.96434q7.6436462 -13.430328 15.698273 -16.810928q8.062355 -3.3941803 10.38456 -2.0727081q3.7073746 2.1097107 2.7294388 9.229721q-0.9837799 7.098694 -1.8585052 16.722412q-0.87472534 9.623718 0.16501617 21.253738q1.0397415 11.63002 9.526405 22.589859q6.9022827 13.743652 21.33738 27.17163q14.435104 13.4279785 31.573242 23.180573q29.183716 16.60727 57.231964 23.363739q28.048248 6.7565002 52.897583 4.034088q24.849365 -2.722412 44.996826 -15.473358q20.141632 -12.772278 33.319 -35.92569q12.659546 -22.243546 11.68515 -46.402847q-0.97439575 -24.159302 -13.072205 -47.60118q-12.111389 -23.449615 -33.662567 -44.30687q-21.551178 -20.85727 -50.273163 -37.201767q-13.892487 -7.9056396 -28.481552 -14.050346q-14.59491 -6.166008 -29.8768 -8.408287q-15.274185 -2.2558594 -31.259521 -0.008483887q-15.998917 2.2396393 -33.18058 10.853523q-19.278 12.328873 -29.54602 21.209564q-10.268013 8.880684 -13.975395 6.7709656q-1.38517 -0.78824615 -2.1732483 -3.6996536q18.269928 -20.25544 40.40341 -32.199837q20.400406 -11.078918 44.13109 -12.909798q-26.103134 1.7033081 -45.267067 11.652115q-21.337433 10.545692 -41.26304 30.488167q-1.0006027 -3.6436005 -2.847496 -4.6945953q-1.8604813 -1.0587234 -7.0713425 4.8749847q-5.210861 5.933708 -11.54039 12.758949q-6.335373 6.8039246 -12.931412 11.949387q-6.609619 5.137741 -10.778721 2.765274q-5.1061325 -2.9057007 -2.6693573 -12.557373q2.423195 -9.659409 6.0328674 -23.551575q1.8471489 -3.245552 4.492214 -5.71344q2.6392136 -2.4891968 4.884266 -4.2858276q17.091427 -20.332802 39.476223 -34.866817q22.378937 -14.555321 48.414772 -21.510483q26.035812 -6.955164 55.302444 -5.024523q29.253052 1.9229145 59.822205 15.021872q-28.644836 -13.226402 -56.779236 -16.040844q-28.140244 -2.8357468 -54.836746 3.1322098q-26.710075 5.960228 -50.868355 20.419868q-24.171856 14.451908 -44.373814 34.84837q12.134003 -21.320137 32.697956 -37.519535q20.563957 -16.199398 47.025856 -24.440208q26.461899 -8.240814 57.933945 -7.500141q31.472046 0.740675 65.67142 12.831242q-0.5255585 0.92341995 -0.8782196 3.1856918q-0.35850525 2.240963 -0.89178467 3.1779633q25.996292 9.256264 48.240555 21.914562q32.415802 18.446495 57.78717 46.07997q25.365509 27.612167 39.00653 60.219986q13.648743 32.59424 13.151306 68.50043q-0.497406 35.906174 -20.53012 71.10478q-11.863495 20.844849 -29.231018 37.335083q-17.353943 16.497955 -37.306213 27.83191q1.4490051 -0.3979187 2.3860168 0.13528442q0.9234619 0.5255127 -0.39041138 2.8340454q20.862122 -10.816162 38.229675 -27.306396zm-61.967438 -276.88434q16.73996 12.600235 33.465363 27.942764q16.725403 15.342529 30.89746 33.528748q14.172089 18.186234 23.80194 38.983246q9.160431 20.547852 11.779022 42.892212q-2.1568909 -22.081604 -10.579224 -42.820694q-8.897614 -21.009552 -22.806915 -39.6575q-13.922882 -18.655655 -32.033447 -34.78643q-18.110565 -16.130775 -37.96881 -28.65377q1.122406 1.2499542 3.4446106 2.5714264zm5.769989 52.344795q15.5035095 13.730339 27.729218 30.50335q12.225708 16.772995 18.609894 35.723053q-5.6596985 -19.149017 -17.654541 -35.790634q-11.994843 -16.641632 -28.68457 -30.435768zm-13.616791 -70.90465q7.8764954 4.4821815 15.689148 10.150532q7.6137085 4.9438934 15.426361 10.612236q-7.8764954 -4.4821777 -17.07431 -10.938774q-9.659576 -6.7193413 -21.70514 -13.573986l-8.338226 -4.7449303q3.9701538 1.6480064 8.139252 4.0204697l7.862915 4.474453zm13.616791 70.90465q-8.871246 -8.104469 -18.63028 -15.186043q-9.764862 -7.1028824 -20.425293 -13.169281q-11.583847 -6.591896 -24.404175 -12.053688q5.3553314 2.4362564 10.117538 4.8406143q4.7622223 2.404358 9.854782 5.3023148q23.629425 13.446548 43.487427 30.266083zm20.282654 -48.557663l20.319702 17.08229q7.030182 7.0747833 13.815918 14.010468q6.779907 6.9143753 12.809235 14.642113q-11.448242 -13.274361 -23.831635 -24.905571q-12.389252 -11.652527 -24.960144 -21.880295l1.8469238 1.0509949zm-1.1286621 300.4674q-0.46173096 -0.26275635 -1.1862183 -0.063812256q0.46173096 0.26275635 1.1862183 0.063812256zm48.073517 -254.73253q1.3349304 1.9821396 2.4573364 3.2320938q-1.122406 -1.2499542 -2.4573364 -3.2320938zm8.223877 11.421539q-0.85961914 -1.7116699 -1.9956055 -2.9693527q1.1359863 1.2576828 1.9956055 2.9693527zm-204.07059 -62.77015q-1.1862183 -0.06378174 -2.6352234 0.33413696q1.1862335 0.06378937 2.6352234 -0.33413696zm198.30405 54.580704q1.7966309 2.2448883 3.579712 4.4820557q-1.783081 -2.2371674 -3.579712 -4.4820557z" fill-rule="nonzero"></path><path fill="#073763" d="m220.11256 62.781055l2.1085205 0l142.47215 83.418884l1.3800659 3.6347656l-0.2180481 166.61723l-1.2363586 2.0366821l-141.45381 64.434814l-3.2705536 0l-141.8899 -64.79904l0 -2.180359l-0.29236603 -166.25304l-0.07185364 -3.347351z" fill-rule="nonzero"></path><path stroke="#000000" stroke-width="1.0" stroke-linejoin="round" stroke-linecap="butt" d="m220.11256 62.781055l2.1085205 0l142.47215 83.418884l1.3800659 3.6347656l-0.2180481 166.61723l-1.2363586 2.0366821l-141.45381 64.434814l-3.2705536 0l-141.8899 -64.79904l0 -2.180359l-0.29236603 -166.25304l-0.07185364 -3.347351z" fill-rule="nonzero"></path><path fill="#000000" fill-opacity="0.0" d="m515.49884 23.304335l0 0" fill-rule="nonzero"></path><path stroke="#000000" stroke-width="1.0" stroke-linejoin="round" stroke-linecap="butt" d="m515.49884 23.304335l0 0" fill-rule="nonzero"></path><path fill="#9fc5e8" d="m141.71936 262.90176l79.44882 -137.4488l79.44882 137.4488z" fill-rule="nonzero"></path><path stroke="#000000" stroke-width="1.0" stroke-linejoin="round" stroke-linecap="butt" stroke-dasharray="1.0,3.0" d="m141.71936 262.90176l79.44882 -137.4488l79.44882 137.4488z" fill-rule="nonzero"></path><path fill="#000000" fill-opacity="0.0" d="m191.05823 169.34991l60.220474 0l0 83.96852l-60.220474 0z" fill-rule="nonzero"></path><path fill="#000000" d="m215.46448 234.27805q-1.578125 -4.234375 -5.84375 -12.546875q-4.265625 -8.328125 -5.6875 -11.078125q-3.234375 -6.671875 -3.234375 -8.0625q0 -1.625 4.828125 -3.5q2.578125 4.8125 4.375 8.59375q1.796875 3.78125 3.53125 7.09375q4.09375 8.03125 5.765625 10.015625q-0.1875 0.140625 3.015625 -6.6875l4.8125 -10.125q3.84375 -8.1875 5.015625 -10.875q2.5625 -3.03125 4.546875 -3.03125q2.65625 0 2.65625 3.96875l-16.90625 37.109375q-1.625 1.03125 -3.734375 1.03125q-2.09375 0 -3.140625 -1.90625z" fill-rule="nonzero"></path><path fill="#6fa8dc" d="m222.1408 62.954487l142.2541 83.34456l-142.10793 -23.27295z" fill-rule="nonzero"></path><path stroke="#000000" stroke-width="1.0" stroke-linejoin="round" stroke-linecap="butt" stroke-dasharray="1.0,3.0" d="m222.1408 62.954487l142.2541 83.34456l-142.10793 -23.27295z" fill-rule="nonzero"></path><path fill="#9fc5e8" d="m220.18344 62.953247l-142.25412 83.34454l142.10794 -23.272942z" fill-rule="nonzero"></path><path stroke="#000000" stroke-width="1.0" stroke-linejoin="round" stroke-linecap="butt" stroke-dasharray="1.0,3.0" d="m220.18344 62.953247l-142.25412 83.34454l142.10794 -23.272942z" fill-rule="nonzero"></path><path fill="#000000" fill-opacity="0.0" d="m144.8373 95.41094l36.755905 -32.629917l35.370087 39.811024l-36.755905 32.62992z" fill-rule="nonzero"></path><path fill="#000000" d="m183.55794 123.58418q-0.38128662 -0.66441345 -1.1373138 -2.1035004q-0.74435425 -1.4494705 -1.711792 -3.244133q-0.9661255 -1.8167114 -2.0217438 -3.804718q-1.0439148 -1.9983749 -1.9996643 -3.8034134q-0.9544525 -1.8270874 -1.7234802 -3.2337494q-0.7573395 -1.417038 -1.1243286 -2.135933q-0.5006714 -0.704689 -0.3291626 -1.1703491q0.18319702 -0.47603607 0.5454254 -0.7976074q0.37391663 -0.3319397 0.6828766 -0.50174713q0.3206482 -0.18018341 0.7072296 0.207901l9.678131 18.256676q0.30340576 0.6708603 -0.30566406 1.608551q-0.61946106 0.9260025 -1.2605133 0.722023zm15.73703 -21.868301q0.96984863 -0.8609772 1.4600677 0.020141602q0.4915161 0.8590622 0.079696655 1.830574q-0.41183472 0.97151184 -1.1182251 1.8702316q-0.7050934 0.87667084 -1.4075012 1.5211182q-0.6907196 0.63407135 -0.84783936 0.8571396q-0.14544678 0.21269989 -0.6804962 1.0219803q-0.53504944 0.809288 -1.2649078 1.9168701q-0.7402191 1.0959015 -1.6025238 2.383751q-2.7037659 3.9672852 -4.6668243 5.709984q-0.9932251 0.8817291 -1.5317993 0.81661224q-0.53726196 -0.08717346 -0.7095337 -0.91625214q0.89338684 -4.2405624 1.1981812 -9.943497q0.47209167 -8.525848 -1.2307129 -11.548126q-0.3410797 -0.59563446 -0.7834778 -0.9759598q-0.93800354 -0.7969971 -2.4516602 0.08708191q-1.2853394 1.1410522 -1.753128 2.496544q-0.45610046 1.3451233 -0.75 2.755188q-0.28222656 1.3996887 -0.6682129 2.6825714q-0.3860016 1.2828827 -1.472702 2.2475967q-0.6159668 -1.1873474 -0.46858215 -2.927002q0.25587463 -3.570137 2.4740143 -7.001854q0.77275085 -1.2710266 1.3569946 -1.7896805q0.5842438 -0.5186615 0.895813 -0.7325821q1.2255249 -0.8790207 2.5142365 -0.7694473q1.3003998 0.09920502 2.422348 1.7149048q2.7766266 4.889641 2.319748 14.279526q-0.1191864 2.571251 -0.34336853 4.859642q0.3245697 -0.24633789 1.013977 -0.8583603q0.68940735 -0.6120224 1.6607971 -2.0593872q0.97268677 -1.469429 1.9961243 -3.2346191q1.0130615 -1.7768784 2.0312653 -3.4538574q1.019516 -1.699028 2.3282318 -2.8608322z" fill-rule="nonzero"></path><path fill="#000000" fill-opacity="0.0" d="m260.75803 150.0513l-34.236206 -25.732277l31.937012 -42.58268l34.236206 25.732285z" fill-rule="nonzero"></path><path fill="#000000" d="m261.28537 99.322205q-1.0367126 -0.7791977 -0.44607544 -1.5666962q0.5812378 -0.7750015 1.5400696 -0.62117004q0.9588623 0.15383148 1.9425659 0.6390991q0.9743347 0.4977646 1.7331238 1.0485306q0.75878906 0.5507736 0.9961548 0.6509781q0.2373352 0.10020447 1.0992737 0.435318q0.8494568 0.32572174 2.0299683 0.78297424q1.1586304 0.4603653 2.5171509 0.99276733q4.2253723 1.709877 6.323761 3.2870407q1.061676 0.797966 1.1801453 1.3952179q0.09661865 0.60035706 -0.55633545 1.0282669q-3.8950806 0.29758453 -8.855621 1.6512375q-7.4220886 2.005478 -9.456451 4.7179794q-0.4031372 0.5374985 -0.58761597 1.1220398q-0.39401245 1.2284775 0.8361206 2.5830765q1.3739319 1.0326691 2.6701355 1.1273193q1.2962036 0.09465027 2.5862122 -0.010803223q1.2775574 -0.11483765 2.4988098 -0.0765152q1.2087708 0.028930664 2.3703613 0.9020004q-0.8155823 1.0093384 -2.3493347 1.3616257q-3.1237488 0.77957916 -6.740204 -0.570343q-1.3241882 -0.44796753 -1.9487 -0.9173584q-0.6245117 -0.46939087 -0.9086609 -0.7415924q-1.13031 -1.0450058 -1.4421387 -2.4521637q-0.3117981 -1.4071503 0.71017456 -3.082306q3.3000183 -4.4000015 11.453064 -6.6770096q2.2303772 -0.6300888 4.254547 -1.0633469q-0.31848145 -0.2784729 -1.0554199 -0.8323593q-0.7369385 -0.5538788 -2.2734375 -1.1614456q-1.5583801 -0.6044464 -3.3791504 -1.1715469q-1.8301392 -0.5546112 -3.5759277 -1.143547q-1.7676697 -0.5858307 -3.166565 -1.6372681z" fill-rule="nonzero"></path><path fill="#6fa8dc" d="m300.60486 265.1069l-79.44881 117.7323l-79.44882 -117.7323z" fill-rule="nonzero"></path><path stroke="#000000" stroke-width="1.0" stroke-linejoin="round" stroke-linecap="butt" stroke-dasharray="1.0,3.0" d="m300.60486 265.1069l-79.44881 117.7323l-79.44882 -117.7323z" fill-rule="nonzero"></path><path fill="#000000" fill-opacity="0.0" d="m191.78691 268.68085l60.220474 0.03149414l0 69.29132l-60.220474 -0.03149414z" fill-rule="nonzero"></path><path fill="#000000" d="m201.66191 328.94226q0 -1.671875 1.140625 -2.7337952q1.15625 -1.0618896 1.640625 -1.38974q0.5 -0.32788086 2.578125 -2.2330322q0.359375 6.797058 6.09375 6.800049q5.171875 0.0027160645 12.203125 -3.2748718q4.84375 -2.200592 6.421875 -4.418518q0.34375 -0.4373169 0.375 -0.5466614q0.03125 -0.109375 0.515625 -0.015350342l-24.0625 -4.9813538q-1.3125 -0.2975464 -2.515625 -1.1888123q-2.328125 -1.6730957 -2.328125 -3.3605957q0 -4.765625 6.359375 -8.418549q6.53125 -3.684082 17.359375 -5.522156q2.46875 -0.42059326 3.9375 -0.49795532q0.453125 0.15649414 1.15625 0.25061035q0.71875 0.07849121 1.546875 0.26641846q3.0781097 0.68911743 2.4843597 2.9075623q0 2.90625 -8.67186 4.229828q-9.703125 1.4480591 -11.953125 2.3687744q-2.25 0.9050598 -3.0625 1.7015076q-0.8125 0.79644775 -0.859375 1.7495422q-0.859375 -0.031677246 0.4375 -0.12475586q1.3125 -0.10870361 3.1875 0.39227295q1.890625 0.48538208 4.890625 1.3150635q7.28125 1.9881897 18.39061 5.197113q0.921875 2.0786133 0.921875 3.4536133q0 3.71875 -4.0937347 6.966614q-4.296875 3.3571472 -11.796875 5.6500854q-6.203125 1.8717651 -9.96875 1.8697815q-3.21875 -0.0016784668 -6.109375 -1.1282043q-2.875 -1.1264954 -4.546875 -2.3617249q-1.671875 -1.250885 -1.671875 -2.92276z" fill-rule="nonzero"></path><path fill="#6fa8dc" d="m223.59761 125.23474l79.417404 137.88843l61.37982 -114.90785z" fill-rule="nonzero"></path><path stroke="#000000" stroke-width="1.0" stroke-linejoin="round" stroke-linecap="butt" stroke-dasharray="1.0,3.0" d="m223.59761 125.23474l79.417404 137.88843l61.37982 -114.90785z" fill-rule="nonzero"></path><path fill="#000000" fill-opacity="0.0" d="m316.65564 133.88531l42.677155 71.968506l-63.433075 37.543304l-42.677155 -71.968506z" fill-rule="nonzero"></path><path fill="#000000" d="m296.795 180.51875q0.661499 1.1154938 -0.18563843 1.6168671q-0.8336792 0.49342346 -1.6619568 -0.014968872q-0.8282776 -0.50839233 -1.5529785 -1.3322754q-0.7112732 -0.8318329 -1.2028809 -1.630249q-0.49163818 -0.7984314 -0.6729431 -0.9816284q-0.18130493 -0.18319702 -0.850708 -0.82192993q-0.661438 -0.6252899 -1.5789185 -1.4984894q-0.8960266 -0.8677368 -1.9494629 -1.8783417q-3.2559204 -3.1931152 -4.5948486 -5.4509735q-0.6774292 -1.1423798 -0.55892944 -1.7390442q0.13989258 -0.5911865 0.90737915 -0.7367554q3.7169495 1.2135315 8.822876 1.8591766q7.632019 0.984375 10.549896 -0.7425842q0.57818604 -0.34220886 0.97210693 -0.81137085q0.8336487 -0.9836273 0.21295166 -2.7042694q-0.87667847 -1.478363 -2.0396423 -2.06102q-1.1629639 -0.58265686 -2.396637 -0.9781952q-1.225708 -0.3821106 -2.3408508 -0.88412476q-1.1071777 -0.48857117 -1.8483582 -1.7384644q1.1399536 -0.620224 2.6933594 -0.35943604q3.1874695 0.47381592 6.0175476 3.1019287q1.0539246 0.9195404 1.4523926 1.5915222q0.39849854 0.6719818 0.55740356 1.0318604q0.6465759 1.3966675 0.39764404 2.8149414q-0.24890137 1.4182739 -1.8340454 2.5743408q-4.7331543 2.8013458 -13.145081 1.7883453q-2.303955 -0.27049255 -4.3419495 -0.64390564q0.18829346 0.37878418 0.6584778 1.1717224q0.47021484 0.79293823 1.6596375 1.9409637q1.2108154 1.1534882 2.67865 2.372757q1.4812622 1.2113037 2.8713684 2.4220886q1.4115295 1.2162781 2.3041382 2.7215118zm-0.87390137 7.961441q0.06262207 -1.6711578 0.79660034 -3.0678864q0.7419739 -1.3832703 2.086609 -2.1791077q1.344635 -0.7958374 3.4259033 -1.4829407q2.094696 -0.6950531 4.0345154 -1.0079651q1.9612427 -0.30741882 3.9663696 -0.29582214q2.0050964 0.0116119385 3.82547 0.4775238q3.9589844 1.070282 5.847809 4.255478q2.550293 4.3006897 0.74523926 8.455643q-1.6048889 3.8186035 -5.8404846 6.32547q-5.002075 2.9605103 -9.695709 1.4172058q-4.5382385 -1.5263367 -7.6065674 -6.7006073q-1.7772522 -2.9970398 -1.5857544 -6.196991zm4.304779 -3.4011688q-4.5448914 2.689911 -0.7194519 9.140961q2.7495422 4.636673 6.5083313 5.553116q3.780182 0.9219208 8.190582 -1.6884155q0.13446045 -0.079589844 0.26895142 -0.15917969q3.8591003 -2.2840424 4.763275 -5.415573q0.92562866 -3.126068 -1.0429077 -6.4456635q-0.22314453 -0.37631226 -0.39050293 -0.6585388q-0.1673584 -0.28224182 -0.31082153 -0.52415466q-1.052002 -1.7740326 -4.508423 -2.088684q-3.1989136 -0.33995056 -7.347992 0.53608704q-3.7974854 0.79504395 -5.4110413 1.7500458z" fill-rule="nonzero"></path><path fill="#cfe2f3" d="m219.45502 125.23474l-79.41742 137.88843l-61.379814 -114.90785z" fill-rule="nonzero"></path><path stroke="#000000" stroke-width="1.0" stroke-linejoin="round" stroke-linecap="butt" stroke-dasharray="1.0,3.0" d="m219.45502 125.23474l-79.41742 137.88843l-61.379814 -114.90785z" fill-rule="nonzero"></path><path fill="#000000" fill-opacity="0.0" d="m119.23792 141.85864l65.00788 0l0 77.291336l-65.00788 0z" fill-rule="nonzero"></path><path fill="#000000" d="m158.19104 179.69301l-5.21875 -0.125q-1.9375 0 -3.53125 0.234375q-0.0625 1.3125 -0.421875 4.96875q-1.234375 12.828125 -1.234375 16.609375q0 3.78125 0.21875 6.578125l-8.203125 0.609375l1.84375 -29.140625l-11.1875 -0.625q-1.328125 0 -1.78125 -1.265625q-0.4375 -1.28125 -0.4375 -2.234375q0 -0.953125 0.828125 -2.140625q0.828125 -1.1875 2.21875 -1.1875q4.3125 0.171875 8.6875 0.578125q7.96875 0.703125 13.53125 0.703125l3.609375 -0.109375q4.171875 -0.125 8.53125 -0.953125q2.109375 0.375 2.421875 4.0625q0.0625 0.65625 0.0625 2.0q-4.953125 1.4375 -9.9375 1.4375z" fill-rule="nonzero"></path><path fill="#9fc5e8" d="m77.932785 149.7088l61.37982 114.90784l-61.089935 51.78125z" fill-rule="nonzero"></path><path stroke="#000000" stroke-width="1.0" stroke-linejoin="round" stroke-linecap="butt" stroke-dasharray="1.0,3.0" d="m77.932785 149.7088l61.37982 114.90784l-61.089935 51.78125z" fill-rule="nonzero"></path><path fill="#6fa8dc" d="m219.89453 382.84192l-79.41742 -116.362274l-62.25196 51.491364z" fill-rule="nonzero"></path><path stroke="#000000" stroke-width="1.0" stroke-linejoin="round" stroke-linecap="butt" stroke-dasharray="1.0,3.0" d="m219.89453 382.84192l-79.41742 -116.362274l-62.25196 51.491364z" fill-rule="nonzero"></path><path fill="#3d85c6" d="m365.84708 149.7088l-61.37982 114.90784l61.089935 51.78125z" fill-rule="nonzero"></path><path stroke="#000000" stroke-width="1.0" stroke-linejoin="round" stroke-linecap="butt" stroke-dasharray="1.0,3.0" d="m365.84708 149.7088l-61.37982 114.90784l61.089935 51.78125z" fill-rule="nonzero"></path><path fill="#3d85c6" d="m223.1569 382.84192l79.417404 -116.362274l62.251984 51.491364z" fill-rule="nonzero"></path><path stroke="#000000" stroke-width="1.0" stroke-linejoin="round" stroke-linecap="butt" stroke-dasharray="1.0,3.0" d="m223.1569 382.84192l79.417404 -116.362274l62.251984 51.491364z" fill-rule="nonzero"></path><path fill="#000000" fill-opacity="0.0" d="m137.84132 230.70927l0 59.685043l-53.22834 0l0 -59.685043z" fill-rule="nonzero"></path><path fill="#000000" d="m91.06633 240.80302q0.75 0 2.328125 0.0625q1.578125 0.0625 3.5625 0.109375q2.0 0.0625 4.1875 0.140625q2.1875 0.078125 4.171875 0.140625q2.0 0.0625 3.5625 0.09375q1.5625 0.046875 2.34375 0.078125q0.859375 -0.078125 1.09375 0.3125q0.234375 0.390625 0.234375 0.875q0 0.5 -0.078125 0.859375q-0.078125 0.375 -0.625 0.53125l-20.078125 -0.625q-0.703125 -0.078125 -1.0 -1.09375q-0.28125 -1.015625 0.296875 -1.484375zm-0.625 16.132828l2.265625 -0.109375q0.234375 0 0.4375 0q3.59375 0 8.625 2.453125q2.078125 1.0625 3.953125 2.03125q1.875 0.984375 3.390625 1.328125q0 -2.109375 -0.109375 -4.171875q-0.4375 -7.5781403 -0.4375 -9.35939q0 -1.78125 0.078125 -3.1875q0.203125 -0.421875 0.390625 -0.5625q0.203125 -0.140625 0.546875 -0.140625q0.359375 0 0.546875 0.140625q0.203125 0.140625 0.390625 0.5625q-0.03125 0.75 -0.03125 2.109375q0 1.375 0.265625 3.71875q0.28125 2.34375 0.6875 5.0156403q0.40625 2.671875 0.75 5.328125q0.359375 2.65625 0.359375 5.3125q0 0.625 -0.3125 0.9375q-0.3125 0.3125 -0.609375 0.3125q-0.28125 0 -0.40625 0q-7.53125 -6.796875 -14.640625 -8.359375q-1.53125 -0.3125 -2.90625 -0.3125q-1.359375 0 -2.609375 0.234375l-0.625 -3.28125z" fill-rule="nonzero"></path><path fill="#000000" fill-opacity="0.0" d="m135.71146 276.3696l53.606293 23.653534l-21.543304 48.6929l-53.6063 -23.653534z" fill-rule="nonzero"></path><path fill="#000000" d="m150.00931 312.8322q-0.94828796 2.143341 -5.662491 3.5301514q-1.1548309 0.29312134 -1.9954681 0.571167q4.357025 2.007904 4.3296814 4.386841q-0.016464233 0.5392456 -0.23773193 1.0393372q-0.2212677 0.5001221 -0.86587524 1.2233276q-0.6445923 0.72320557 -2.0080566 1.487854q-1.3634796 0.76464844 -3.0527039 1.3001709q-3.510147 1.0983276 -6.719925 0.7067566q-1.0842133 -0.13684082 -1.6846161 -0.40176392q-0.58610535 -0.25863647 -0.9371643 -0.43060303q-0.35105896 -0.17199707 -0.65649414 -0.56292725q-0.28482056 -0.3989563 -0.06355286 -0.89904785q2.9846344 0.5142517 5.56456 0.16680908q2.6005402 -0.3554077 4.373337 -1.1956482q2.1469116 -1.0679321 2.6336975 -2.1681824q0.49310303 -1.1145325 -0.022369385 -1.8031311q-0.49487305 -0.6965332 -1.5670013 -1.1696167q-2.716095 -1.1984558 -8.384827 -1.0526123l-0.5356293 -2.149109q13.034149 -0.2262268 14.001389 -2.412445q0.41093445 -0.928772 -1.4925537 -2.1102295q-2.1156921 -0.93356323 -5.1335907 -1.4112549q-3.0035858 -0.47140503 -4.621399 -0.79244995q-1.5971985 -0.32904053 -3.1410828 -1.0102539q0.73965454 -1.671814 1.695221 -1.5917358q1.6590424 0.30508423 3.5212402 0.6144104q6.1232147 1.0281372 9.425415 2.4852295q3.3164825 1.4633789 3.2379913 3.6489563z" fill-rule="nonzero"></path><path fill="#000000" fill-opacity="0.0" d="m280.76324 266.5098l65.00787 -0.03149414l0 73.700775l-65.00787 0.03152466z" fill-rule="nonzero"></path><path fill="#000000" d="m292.27887 330.97922q0 -0.421875 0.15625 -0.90631104q0.15625 -0.50009155 0.296875 -2.3439026q0.140625 -1.859436 0.21875 -4.5625916q0.09375 -2.718811 0.171875 -5.9688416q0.09375 -3.250061 0.1875 -6.6563416q0.09375 -3.406311 0.203125 -6.6719666q0.125 -3.265686 0.359375 -6.000183q0.546875 -6.2346497 1.546875 -7.469513q0.6875 -1.9847107 4.265625 -1.9864197q0 0 2.078125 -0.0010070801q0 3.515625 -0.5 10.687744q-0.5 7.156494 -0.953125 7.109833q2.328125 -1.7042542 5.84375 -3.9403381q3.53125 -2.251709 6.625 -4.1750793q3.109375 -1.9234009 5.78125 -3.2528076q2.6875 -1.3450623 4.21875 -1.3457947q3.296875 -0.0015869141 3.296875 2.826538q0 1.84375 -2.15625 3.5479126q-2.140625 1.7041626 -5.015625 3.3618164q-2.859375 1.6576233 -6.1875 3.2998657q-3.3125 1.6422119 -6.078125 3.1748047q-2.765625 1.5169678 -4.359375 2.6583862q-1.578125 1.1413879 -1.578125 0.79763794q0.390625 0.23416138 2.78125 1.3111267q2.40625 1.0613403 5.421875 2.4505005q3.03125 1.3735352 6.296875 2.9344482q3.28125 1.5609131 6.03125 3.1689758q6.71875 3.7936096 6.71875 6.8092346q0 1.703125 -1.90625 2.2665405q-0.578125 0.15652466 -1.15625 0.15682983l-0.59375 2.746582E-4q-3.125 0.0015258789 -5.765625 -1.4346924q-2.625 -1.4362488 -5.40625 -3.309906q-2.78125 -1.8736267 -6.21875 -3.8407288q-3.421875 -1.967102 -6.671875 -2.8561401l0 10.375q-0.453125 0.9845886 -1.921875 1.438446q-1.546875 0.46948242 -3.796875 0.47058105q-2.234375 0.0010681152 -2.234375 -2.123932z" fill-rule="nonzero"></path><path fill="#000000" fill-opacity="0.0" d="m310.16534 268.67972l-4.6614075 -68.188965l53.07086 -3.622055l4.661438 68.18898z" fill-rule="nonzero"></path><path fill="#000000" d="m356.1434 255.42453q-0.7482605 0.051071167 -2.3269958 0.09617615q-1.5787354 0.04508972 -3.5617065 0.13345337q-1.9996033 0.07382202 -4.1873474 0.14482117q-2.1877747 0.071014404 -4.1717834 0.14376831q-1.9996338 0.07382202 -3.5606384 0.14904785q-1.5620728 0.059631348 -2.343628 0.08163452q-0.8520508 0.13647461 -1.1125488 -0.23728943q-0.26046753 -0.37374878 -0.29348755 -0.8569946q-0.034118652 -0.49884033 0.019317627 -0.8627014q0.052368164 -0.3794403 0.5873413 -0.5725708l20.074127 -0.7435913q0.70684814 0.030075073 1.0722961 1.0231171q0.34985352 0.9941101 -0.19494629 1.5011292zm-0.1166687 -19.576553q0.05645752 0.8262024 -0.40374756 0.9672394l-7.7426453 0.3718109l0.19500732 2.8527222l0.28851318 4.678711l0.19180298 2.805954q0.034118652 0.49884033 -0.08660889 1.0238953q-0.121795654 0.5094757 -0.79211426 0.55522156q-2.790741 -1.876831 -5.605194 -3.6424103q-8.888824 -5.6265564 -9.045471 -7.918091q-0.17584229 -2.572113 8.865631 -3.1891937q1.1691589 -0.07978821 2.496338 -0.13905334l-0.6973572 -8.597473q1.0132751 -0.06915283 1.4979858 0.14834595q0.4847107 0.21751404 0.5297241 0.4180298l1.0847168 7.1615143q1.549408 0.44239807 3.4753418 0.43624878q3.1305237 -0.025726318 5.235016 -0.1693573l0.5130615 2.2358856zm-19.323517 2.101883q1.2277527 0.7775879 2.4187317 1.933548q1.1910095 1.1559601 2.3933105 2.2485046q1.1867065 1.0936127 2.3886414 1.9512634q1.1863098 0.8587036 2.402649 1.0106201q-0.019195557 -0.28059387 -0.08312988 -1.2159119q-0.063934326 -0.935318 -0.3859558 -2.6674194q-0.33865356 -1.7466125 -0.7163391 -3.8351135l-8.417908 0.57450867z" fill-rule="nonzero"></path></g></svg>

